<svg width="16" height="20" viewBox="0 0 16 20" fill="none" xmlns="http://www.w3.org/2000/svg">
<path fill-rule="evenodd" clip-rule="evenodd" d="M4.58579 0.585786C4.96086 0.210714 5.46957 0 6 0H10C10.5304 0 11.0391 0.210714 11.4142 0.585786C11.7893 0.960859 12 1.46957 12 2V4H15C15.5523 4 16 4.44772 16 5C16 5.55228 15.5523 6 15 6V18C15 18.5304 14.7893 19.0391 14.4142 19.4142C14.0391 19.7893 13.5304 20 13 20H3C2.46957 20 1.96086 19.7893 1.58579 19.4142C1.21071 19.0391 1 18.5304 1 18V6C0.447715 6 0 5.55228 0 5C0 4.44772 0.447715 4 1 4H4V2C4 1.46957 4.21071 0.960859 4.58579 0.585786ZM6 4H10V2H6V4ZM7 8C7 7.44772 6.55228 7 6 7C5.44772 7 5 7.44772 5 8V16C5 16.5523 5.44772 17 6 17C6.55228 17 7 16.5523 7 16V8ZM11 8C11 7.44772 10.5523 7 10 7C9.44772 7 9 7.44772 9 8V16C9 16.5523 9.44772 17 10 17C10.5523 17 11 16.5523 11 16V8Z" fill="currentColor"/>
</svg>
